<svg xmlns="http://www.w3.org/2000/svg" viewBox="0 0 900 420">
  <defs>
    <linearGradient id="g1" x1="0" x2="1" y1="0" y2="1">
      <stop offset="0" stop-color="#22D3EE" stop-opacity="0.5"/>
      <stop offset="1" stop-color="#8B5CF6" stop-opacity="0.5"/>
    </linearGradient>
    <linearGradient id="g2" x1="1" x2="0" y1="0" y2="1">
      <stop offset="0" stop-color="#34D399" stop-opacity="0.5"/>
      <stop offset="1" stop-color="#F59E0B" stop-opacity="0.5"/>
    </linearGradient>
    <filter id="blur" x="-20%" y="-20%" width="140%" height="140%">
      <feGaussianBlur stdDeviation="20"/>
    </filter>
  </defs>
  <rect width="100%" height="100%" fill="none"/>

  <!-- Abstract blobs -->
  <g filter="url(#blur)">
    <circle cx="150" cy="120" r="110" fill="url(#g1)"/>
    <circle cx="740" cy="90" r="120" fill="url(#g2)"/>
    <circle cx="480" cy="320" r="140" fill="url(#g1)"/>
  </g>

  <!-- Card motif -->
  <g transform="translate(200,110)">
    <rect x="0" y="0" rx="18" width="240" height="150" fill="#0B1220" opacity="0.7" stroke="#FFFFFF22"/>
    <rect x="18" y="20" rx="12" width="204" height="24" fill="#FFFFFF14"/>
    <rect x="18" y="56" rx="8" width="120" height="12" fill="#FFFFFF10"/>
    <rect x="18" y="76" rx="8" width="180" height="12" fill="#FFFFFF10"/>
    <rect x="18" y="96" rx="8" width="160" height="12" fill="#FFFFFF10"/>
  </g>

  <!-- Tabs motif -->
  <g transform="translate(500,140)">
    <rect x="0" y="0" rx="16" width="260" height="150" fill="#0B1220" opacity="0.7" stroke="#FFFFFF22"/>
    <g fill="#FFFFFF14">
      <rect x="16" y="16" rx="10" width="80" height="22"/>
      <rect x="102" y="16" rx="10" width="80" height="22"/>
      <rect x="188" y="16" rx="10" width="56" height="22"/>
    </g>
    <g fill="#FFFFFF10">
      <rect x="16" y="54" rx="6" width="200" height="10"/>
      <rect x="16" y="74" rx="6" width="180" height="10"/>
      <rect x="16" y="94" rx="6" width="160" height="10"/>
      <rect x="16" y="114" rx="6" width="140" height="10"/>
    </g>
  </g>

  <!-- Sparkles and stars -->
  <g fill="#FFFFFF" opacity="0.9">
    <circle cx="90" cy="300" r="2"/>
    <circle cx="830" cy="220" r="2"/>
    <circle cx="760" cy="340" r="2"/>
    <circle cx="420" cy="60" r="2"/>
  </g>
  <g stroke="#FFFFFF" opacity="0.85" stroke-width="2" stroke-linecap="round">
    <path d="M70 70l4 8 8 4-8 4-4 8-4-8-8-4 8-4 4-8z"/>
    <path d="M840 360l3 6 6 3-6 3-3 6-3-6-6-3 6-3 3-6z"/>
  </g>

  <!-- Title motif -->
  <g transform="translate(330,40)">
    <circle cx="0" cy="0" r="10" fill="#22D3EE"/>
    <rect x="18" y="-8" rx="6" width="140" height="16" fill="#FFFFFF33"/>
  </g>
</svg>

