<svg xmlns="http://www.w3.org/2000/svg" style="display:none">
  <!-- Simple, friendly, rounded icon set -->
  <symbol id="logo-temarlije" viewBox="0 0 24 24">
    <circle cx="12" cy="12" r="10" fill="none" stroke="currentColor" stroke-width="2"/>
    <path d="M7 14c2 2 8 2 10-2" fill="none" stroke="currentColor" stroke-width="2" stroke-linecap="round"/>
    <path d="M8 8h8" stroke="currentColor" stroke-width="2" stroke-linecap="round"/>
    <circle cx="9" cy="11" r="1" fill="currentColor"/>
    <circle cx="15" cy="11" r="1" fill="currentColor"/>
  </symbol>

  <symbol id="paste" viewBox="0 0 24 24">
    <rect x="7" y="4" width="10" height="16" rx="2" fill="none" stroke="currentColor" stroke-width="2"/>
    <path d="M9 4h6v2H9z" fill="currentColor"/>
  </symbol>

  <symbol id="url" viewBox="0 0 24 24">
    <path d="M7 12a5 5 0 0 1 5-5h3" fill="none" stroke="currentColor" stroke-width="2" stroke-linecap="round"/>
    <path d="M17 12a5 5 0 0 1-5 5H9" fill="none" stroke="currentColor" stroke-width="2" stroke-linecap="round"/>
    <path d="M14 10h-4v4h4z" fill="none" stroke="currentColor" stroke-width="2" rx="1"/>
  </symbol>

  <symbol id="text" viewBox="0 0 24 24">
    <path d="M4 6h16M4 10h16M4 14h10" stroke="currentColor" stroke-width="2" stroke-linecap="round"/>
  </symbol>

  <symbol id="sparkles" viewBox="0 0 24 24">
    <path d="M12 3l2 4 4 2-4 2-2 4-2-4-4-2 4-2 2-4z" fill="none" stroke="currentColor" stroke-width="2" stroke-linejoin="round"/>
    <path d="M18 16l1 2 2 1-2 1-1 2-1-2-2-1 2-1 1-2z" fill="none" stroke="currentColor" stroke-width="2" stroke-linejoin="round"/>
  </symbol>

  <symbol id="lightbulb" viewBox="0 0 24 24">
    <path d="M12 3a7 7 0 0 1 4 13c-.5.5-1 1.5-1 2H9c0-.5-.5-1.5-1-2A7 7 0 0 1 12 3z" fill="none" stroke="currentColor" stroke-width="2"/>
    <path d="M9 20h6" stroke="currentColor" stroke-width="2" stroke-linecap="round"/>
  </symbol>

  <symbol id="magnifier" viewBox="0 0 24 24">
    <circle cx="11" cy="11" r="6" fill="none" stroke="currentColor" stroke-width="2"/>
    <path d="M16 16l4 4" stroke="currentColor" stroke-width="2" stroke-linecap="round"/>
  </symbol>

  <symbol id="puzzle" viewBox="0 0 24 24">
    <path d="M8 4h4a2 2 0 0 1 2 2v2h2a2 2 0 0 1 2 2v4h-4a2 2 0 0 0-2 2v4H8a2 2 0 0 1-2-2v-4H4v-4h2V6a2 2 0 0 1 2-2z" fill="none" stroke="currentColor" stroke-width="2" stroke-linejoin="round"/>
  </symbol>

  <symbol id="book" viewBox="0 0 24 24">
    <path d="M5 4h7a3 3 0 0 1 3 3v13H8a3 3 0 0 0-3 3z" fill="none" stroke="currentColor" stroke-width="2"/>
    <path d="M12 4h7a3 3 0 0 1 3 3v13h-7" fill="none" stroke="currentColor" stroke-width="2"/>
  </symbol>

  <symbol id="audio" viewBox="0 0 24 24">
    <path d="M8 7a4 4 0 0 1 8 0v7a4 4 0 1 1-2 3.464" fill="none" stroke="currentColor" stroke-width="2" stroke-linecap="round"/>
    <path d="M8 10v4" stroke="currentColor" stroke-width="2" stroke-linecap="round"/>
  </symbol>

  <symbol id="flashcards" viewBox="0 0 24 24">
    <rect x="3" y="6" width="14" height="12" rx="2" fill="none" stroke="currentColor" stroke-width="2"/>
    <rect x="7" y="4" width="14" height="12" rx="2" fill="none" stroke="currentColor" stroke-width="2"/>
  </symbol>

  <symbol id="summary" viewBox="0 0 24 24">
    <path d="M5 6h14M5 10h10M5 14h8M5 18h6" stroke="currentColor" stroke-width="2" stroke-linecap="round"/>
  </symbol>

  <symbol id="elaboration" viewBox="0 0 24 24">
    <path d="M4 6h16M4 10h16M4 14h16" stroke="currentColor" stroke-width="2" stroke-linecap="round"/>
    <path d="M6 18h7" stroke="currentColor" stroke-width="2" stroke-linecap="round"/>
  </symbol>

  <symbol id="download" viewBox="0 0 24 24">
    <path d="M12 3v10" stroke="currentColor" stroke-width="2" stroke-linecap="round"/>
    <path d="M8 9l4 4 4-4" fill="none" stroke="currentColor" stroke-width="2" stroke-linecap="round"/>
    <path d="M5 20h14" stroke="currentColor" stroke-width="2" stroke-linecap="round"/>
  </symbol>

  <symbol id="copy" viewBox="0 0 24 24">
    <rect x="8" y="8" width="10" height="12" rx="2" fill="none" stroke="currentColor" stroke-width="2"/>
    <rect x="6" y="4" width="10" height="12" rx="2" fill="none" stroke="currentColor" stroke-width="2"/>
  </symbol>

  <symbol id="link" viewBox="0 0 24 24">
    <path d="M10 8h4a4 4 0 0 1 0 8h-2" fill="none" stroke="currentColor" stroke-width="2" stroke-linecap="round"/>
    <path d="M14 16h-4a4 4 0 0 1 0-8h2" fill="none" stroke="currentColor" stroke-width="2" stroke-linecap="round"/>
  </symbol>

  <symbol id="check" viewBox="0 0 24 24">
    <path d="M5 13l4 4L19 7" fill="none" stroke="currentColor" stroke-width="2" stroke-linecap="round" stroke-linejoin="round"/>
  </symbol>

  <symbol id="warning" viewBox="0 0 24 24">
    <path d="M12 3l10 18H2z" fill="none" stroke="currentColor" stroke-width="2" stroke-linejoin="round"/>
    <path d="M12 9v5" stroke="currentColor" stroke-width="2" stroke-linecap="round"/>
    <circle cx="12" cy="17" r="1" fill="currentColor"/>
  </symbol>

  <symbol id="info" viewBox="0 0 24 24">
    <circle cx="12" cy="12" r="10" fill="none" stroke="currentColor" stroke-width="2"/>
    <path d="M12 10v6" stroke="currentColor" stroke-width="2" stroke-linecap="round"/>
    <circle cx="12" cy="7" r="1" fill="currentColor"/>
  </symbol>

  <symbol id="close" viewBox="0 0 24 24">
    <path d="M6 6l12 12M6 18L18 6" stroke="currentColor" stroke-width="2" stroke-linecap="round"/>
  </symbol>

  <symbol id="tab-flashcards" viewBox="0 0 24 24">
    <use href="#flashcards" />
  </symbol>

  <symbol id="tab-summary" viewBox="0 0 24 24">
    <use href="#summary" />
  </symbol>

  <symbol id="tab-elaborated" viewBox="0 0 24 24">
    <use href="#elaboration" />
  </symbol>

  <symbol id="spinner" viewBox="0 0 24 24">
    <circle cx="12" cy="12" r="9" fill="none" stroke="currentColor" stroke-width="2" opacity="0.2"/>
    <path d="M21 12a9 9 0 0 0-9-9" fill="none" stroke="currentColor" stroke-width="2" stroke-linecap="round"/>
  </symbol>
</svg>
